# Blender v2.79 (sub 0) OBJ File: 'BlobParticle.blend'
# www.blender.org
mtllib BlobParticle.mtl
o Icosphere
v 0.008709 -1.159949 -0.044557
v 0.580651 -0.571996 0.581385
v -0.349603 -0.274475 0.715375
v -0.986364 -0.356483 -0.208482
v -0.283734 -0.568025 -0.912448
v 0.851914 -0.426070 -0.801611
v 0.315265 0.500363 0.808467
v -0.660238 0.221467 0.608714
v -0.743592 0.699679 -0.482173
v 0.136203 0.324475 -0.908324
v 0.631810 0.565397 0.087294
v -0.008239 1.136736 -0.020817
v -0.125683 -0.957027 0.338613
v 0.469136 -0.557177 0.301413
v 0.370379 -0.572525 0.855738
v 0.769869 -0.645255 -0.080579
v 0.414920 -0.795263 -0.151124
v -0.704113 -1.006159 -0.069059
v -0.774731 -0.503513 0.562087
v -0.170554 -0.987155 -0.529228
v -0.737942 -0.644215 -0.526316
v 0.432928 -0.409149 -0.691565
v 1.003140 0.085711 0.307879
v 1.143483 0.228703 -0.054871
v 0.278806 -0.164959 1.119738
v 0.656882 0.075899 0.955209
v -0.899781 -0.047048 0.335923
v -0.646235 0.007856 0.695941
v -0.647718 -0.014611 -0.714225
v -0.940582 -0.156462 -0.228003
v 0.609196 -0.294828 -1.091005
v -0.092446 -0.139844 -1.109229
v 0.673279 0.573277 0.298482
v -0.362559 0.753543 1.136238
v -1.093452 0.509192 0.018222
v -0.467940 0.682172 -1.025730
v 0.521612 0.389121 -0.502193
v 0.062191 1.050802 0.455382
v 0.498396 0.814397 0.069400
v -0.376022 0.892321 0.365039
v -0.432955 1.373682 -0.492625
v 0.223689 0.868795 -0.719043
v -1.319243 0.810998 0.121084
v -1.046031 0.959753 -0.269682
v -0.758989 1.110190 0.391920
v -0.942522 0.506561 0.594455
v -0.826792 1.377439 -0.223920
v 1.041919 -0.602971 0.007486
v 0.943127 -0.564722 0.353101
v 1.163711 -0.221329 0.210302
v 1.084755 -0.488533 -0.368969
v 1.236985 -0.146672 0.020908
vt 0.414500 0.035114
vt 0.374081 0.190269
vt 0.313260 0.069369
vt 0.348714 0.217229
vt 0.433426 0.212492
vt 0.579923 0.403181
vt 0.684549 0.355009
vt 0.692657 0.499610
vt 0.556688 0.538499
vt 0.540648 0.024426
vt 0.451961 0.147573
vt 0.519159 0.277765
vt 0.451541 0.264713
vt 0.419191 0.246293
vt 0.167758 0.196706
vt 0.308876 0.211003
vt 0.280896 0.258717
vt 0.768641 0.586239
vt 0.819899 0.458748
vt 0.879038 0.540064
vt 0.594134 0.661649
vt 0.683677 0.596625
vt 0.722510 0.716439
vt 0.564872 0.216681
vt 0.583936 0.318214
vt 0.375443 0.296680
vt 0.316460 0.281674
vt 0.092386 0.249608
vt 0.791960 0.617730
vt 0.581648 0.767559
vt 0.408671 0.316131
vt 0.294140 0.323864
vt 0.349772 0.347872
vt 0.280004 0.390441
vt 0.098311 0.311895
vt 0.235676 0.333021
vt 0.223927 0.407794
vt 0.272556 0.577781
vt 0.196638 0.527794
vt 0.175442 0.450655
vt 0.517923 0.472024
vt 0.465119 0.621692
vt 0.409158 0.484252
vt 0.367674 0.362016
vt 0.444140 0.398049
vt 0.348819 0.388853
vt 0.297349 0.450279
vt 0.750404 0.889317
vt 0.866715 0.804137
vt 0.943917 0.961742
vt 0.108399 0.623891
vt 0.132445 0.533404
vt 0.036388 0.483075
vt 0.116457 0.397467
vt 0.115284 0.478641
vt 0.583815 0.894669
vt 0.940250 0.675140
vt 0.971243 0.492973
vt 0.419713 0.801787
vt 0.430790 0.696168
vt 0.932514 0.453009
vt 0.875076 0.369261
vt 0.410310 0.284148
vt 0.387483 0.241500
vt 0.397515 0.274302
vn 0.4939 -0.6848 0.5359
vn -0.2324 -0.9718 0.0411
vn -0.2064 -0.8928 0.4004
vn -0.1947 -0.9445 -0.2647
vn 0.5275 -0.7196 -0.4516
vn 0.2297 -0.9382 -0.2591
vn -0.3762 -0.5618 0.7368
vn -0.9607 -0.1463 0.2359
vn -0.6279 -0.1386 -0.7659
vn -0.1227 -0.9385 -0.3227
vn 0.8282 -0.3500 0.4377
vn -0.4421 -0.4096 0.7980
vn -0.9739 0.2255 0.0267
vn -0.5919 -0.1030 -0.7994
vn 0.7946 0.2677 -0.5450
vn 0.6065 0.6077 0.5127
vn -0.9047 0.4162 0.0907
vn 0.3871 0.8348 0.3914
vn 0.3313 0.2620 -0.9064
vn 0.8522 0.4358 -0.2896
vn 0.5488 0.8251 -0.1343
vn 0.8676 0.4152 -0.2736
vn 0.7093 0.1271 -0.6933
vn 0.5797 0.8064 -0.1169
vn 0.1868 0.5939 -0.7826
vn -0.8228 0.3725 -0.4292
vn -0.0615 0.8686 0.4916
vn -0.4803 0.2602 -0.8376
vn -0.7284 -0.6589 0.1878
vn -0.3713 0.9026 0.2178
vn -0.3661 0.9147 0.1710
vn 0.5172 0.6178 0.5924
vn 0.5257 0.8473 0.0752
vn 0.6348 0.7220 0.2753
vn 0.8713 0.4533 -0.1880
vn 0.4524 0.8277 -0.3321
vn 0.5698 0.5768 -0.5853
vn 0.5375 0.5886 -0.6038
vn 0.3198 0.2392 -0.9168
vn -0.5973 -0.1938 -0.7782
vn -0.8912 0.0275 -0.4528
vn -0.8231 0.0209 -0.5675
vn -0.9569 -0.2643 0.1205
vn -0.7856 0.0771 0.6139
vn -0.9080 0.1060 0.4054
vn -0.4434 -0.3246 0.8355
vn 0.5095 0.3416 0.7898
vn 0.5819 0.6412 0.5002
vn 0.7518 0.5165 0.4100
vn 0.8162 0.5487 -0.1807
vn 0.1020 0.3523 -0.9303
vn -0.1936 -0.9173 -0.3480
vn 0.3547 -0.5166 -0.7793
vn -0.8618 0.0484 -0.5050
vn -0.8517 -0.0340 -0.5229
vn -0.7362 0.1032 -0.6689
vn -0.8176 0.1709 0.5498
vn -0.8203 0.0572 0.5690
vn -0.2417 -0.1884 0.9519
vn 0.1280 0.4145 0.9010
vn 0.5557 -0.3604 0.7492
vn 0.7258 -0.4059 0.5555
vn 0.5711 0.6640 0.4827
vn 0.8810 0.1274 -0.4557
vn 0.5327 0.0097 0.8462
vn -0.1833 -0.7970 -0.5755
vn 0.5368 -0.6949 -0.4786
vn 0.3547 -0.5769 -0.7358
vn -0.4101 -0.6733 -0.6152
vn -0.4381 -0.7203 -0.5378
vn -0.8575 -0.4324 -0.2788
vn -0.9154 -0.3584 0.1830
vn -0.3335 -0.7553 0.5642
vn -0.0466 -0.4944 0.8680
vn 0.4166 -0.8819 -0.2207
vn 0.2811 -0.8628 0.4202
vn 0.6812 -0.6783 0.2753
vn -0.3706 -0.5391 0.7563
vn 0.5595 -0.8252 0.0768
vn -0.0437 -0.9984 -0.0354
vn -0.7998 0.4618 -0.3834
vn -0.5717 0.7278 0.3788
vn -0.5654 0.4117 0.7147
vn -0.7139 -0.3222 -0.6218
vn 0.2097 0.2537 0.9443
vn 0.8553 -0.4281 0.2919
vn 0.8999 -0.3904 0.1943
vn 0.9196 -0.3927 -0.0147
vn 0.8439 0.3000 0.4448
vn 0.1078 -0.9843 0.1397
usemtl None
s off
f 1/1/1 14/2/1 13/3/1
f 2/4/2 14/2/2 16/5/2
f 1/6/3 13/7/3 18/8/3
f 1/6/4 18/8/4 20/9/4
f 1/1/5 20/10/5 17/11/5
f 16/5/6 6/12/6 51/13/6 48/14/6
f 3/15/7 15/16/7 25/17/7
f 4/18/8 19/19/8 27/20/8
f 5/21/9 21/22/9 29/23/9
f 6/12/10 22/24/10 31/25/10
f 2/4/11 23/26/11 26/27/11
f 3/15/12 25/17/12 28/28/12
f 4/18/13 27/20/13 30/29/13
f 5/21/14 29/23/14 32/30/14
f 6/12/15 31/25/15 24/31/15
f 7/32/16 33/33/16 38/34/16
f 8/35/17 34/36/17 40/37/17
f 40/37/18 41/38/18 47/39/18 45/40/18
f 10/41/19 36/42/19 42/43/19
f 11/44/20 37/45/20 39/46/20
f 39/46/21 42/43/21 12/47/21
f 39/46/22 37/45/22 42/43/22
f 37/45/23 10/41/23 42/43/23
f 42/43/24 41/38/24 12/47/24
f 42/43/25 36/42/25 41/38/25
f 36/48/26 9/49/26 41/50/26
f 41/38/27 40/37/27 12/47/27
f 41/38/28 9/51/28 44/52/28 47/39/28
f 35/53/29 8/35/29 46/54/29 43/55/29
f 40/37/30 38/34/30 12/47/30
f 40/37/31 34/36/31 38/34/31
f 34/36/32 7/32/32 38/34/32
f 38/34/33 39/46/33 12/47/33
f 38/34/34 33/33/34 39/46/34
f 33/33/35 11/44/35 39/46/35
f 24/31/36 37/45/36 11/44/36
f 24/31/37 31/25/37 37/45/37
f 31/25/38 10/41/38 37/45/38
f 32/30/39 36/48/39 10/56/39
f 32/30/40 29/23/40 36/48/40
f 29/23/41 9/49/41 36/48/41
f 30/29/42 35/57/42 9/49/42
f 30/29/43 27/20/43 35/57/43
f 27/20/44 8/58/44 35/57/44
f 28/28/45 34/36/45 8/35/45
f 28/28/46 25/17/46 34/36/46
f 25/17/47 7/32/47 34/36/47
f 26/27/48 33/33/48 7/32/48
f 26/27/49 23/26/49 33/33/49
f 23/26/50 11/44/50 33/33/50
f 31/59/51 32/30/51 10/56/51
f 31/59/52 22/60/52 32/30/52
f 22/60/53 5/21/53 32/30/53
f 29/23/54 30/29/54 9/49/54
f 29/23/55 21/22/55 30/29/55
f 21/22/56 4/18/56 30/29/56
f 27/20/57 28/61/57 8/58/57
f 27/20/58 19/19/58 28/61/58
f 19/19/59 3/62/59 28/61/59
f 25/17/60 26/27/60 7/32/60
f 25/17/61 15/16/61 26/27/61
f 15/16/62 2/4/62 26/27/62
f 23/26/63 24/31/63 11/44/63
f 6/12/64 24/31/64 52/63/64 51/13/64
f 23/26/65 2/4/65 49/64/65 50/65/65
f 17/11/66 22/24/66 6/12/66
f 17/11/67 20/10/67 22/24/67
f 20/9/68 5/21/68 22/60/68
f 20/9/69 21/22/69 5/21/69
f 20/9/70 18/8/70 21/22/70
f 18/8/71 4/18/71 21/22/71
f 18/8/72 19/19/72 4/18/72
f 18/8/73 13/7/73 19/19/73
f 13/7/74 3/62/74 19/19/74
f 16/5/75 17/11/75 6/12/75
f 16/5/76 14/2/76 17/11/76
f 14/2/77 1/1/77 17/11/77
f 13/3/78 15/16/78 3/15/78
f 13/3/79 14/2/79 15/16/79
f 14/2/80 2/4/80 15/16/80
f 44/52/81 43/55/81 47/39/81
f 47/39/82 43/55/82 45/40/82
f 43/55/83 46/54/83 45/40/83
f 9/51/84 35/53/84 43/55/84 44/52/84
f 8/35/85 40/37/85 45/40/85 46/54/85
f 49/64/86 48/14/86 50/65/86
f 50/65/87 48/14/87 52/63/87
f 48/14/88 51/13/88 52/63/88
f 24/31/89 23/26/89 50/65/89 52/63/89
f 2/4/90 16/5/90 48/14/90 49/64/90
